<?xml version="1.0" encoding="utf-8"?>
<!-- Generator: Adobe Illustrator 25.0.1, SVG Export Plug-In . SVG Version: 6.00 Build 0)  -->
<svg version="1.1" id="Capa_1" xmlns="http://www.w3.org/2000/svg" xmlns:xlink="http://www.w3.org/1999/xlink" x="0px" y="0px"
	 viewBox="0 0 512 512" style="enable-background:new 0 0 512 512;" xml:space="preserve">
<style type="text/css">
	.st0{fill:#e4ff23;}
</style>
<path class="st0" d="M498,447H16c-9.3,3-16,9.7-16,18v32c0,8.3,6.7,15,15,15h482c8.3,0,15-6.7,15-15v-32
	C512,456.7,505.3,450,498,447z"/>
<path class="st0" d="M502.7,101.1l-241-100c-3.7-1.5-7.8-1.5-11.5,0l-241,100C3.6,103.5,0,108.9,0,115v30c0,8.3,6.7,15,15,15h482
	c8.3,0,15-6.7,15-15v-30C512,108.9,508.4,103.5,502.7,101.1z M346,115H166c-8.3,0-15-6.7-15-15s6.7-15,15-15h180c8.3,0,15,6.7,15,15
	S354.3,115,346,115z"/>
<path class="st0" d="M28.5,390v30h115v-30c0-8.3-6.7-15-15-15h-85C35.2,375,28.5,381.7,28.5,390z"/>
<path class="st0" d="M48.5,190h75v155h-75V190z"/>
<path class="st0" d="M388.5,190h75v155h-75V190z"/>
<path class="st0" d="M368.5,390v30h115v-30c0-8.3-6.7-15-15-15h-85C375.2,375,368.5,381.7,368.5,390z"/>
<path class="st0" d="M256,350c-8.3,0-15-6.7-15-15c0-8.3-6.7-15-15-15s-15,6.7-15,15c0,19.6,12.5,36.2,30,42.4v7.6
	c0,8.3,6.7,15,15,15s15-6.7,15-15v-7.6c17.5-6.2,30-22.9,30-42.4c0-24.8-20.2-45-45-45c-8.3,0-15-6.7-15-15s6.7-15,15-15
	s15,6.7,15,15c0,8.3,6.7,15,15,15s15-6.7,15-15c0-19.6-12.5-36.2-30-42.4V225c0-8.3-6.7-15-15-15s-15,6.7-15,15v7.6
	c-17.5,6.2-30,22.9-30,42.4c0,24.8,20.2,45,45,45c8.3,0,15,6.7,15,15S264.3,350,256,350z"/>
</svg>
