<svg xmlns="http://www.w3.org/2000/svg" width="23" height="23" viewBox="0 0 23 23">
  <g id="vuesax_bold_notification" data-name="vuesax/bold/notification" transform="translate(-172 -188)">
    <g id="notification" transform="translate(172 188)" fill="#fff">
      <path id="Vector" d="M14.753,11.449l-.982-1.522a3.232,3.232,0,0,1-.393-1.357V6.252a5.4,5.4,0,0,0-3.308-4.886A2.915,2.915,0,0,0,7.538,0,2.946,2.946,0,0,0,5,1.393a5.412,5.412,0,0,0-3.24,4.858V8.571a3.155,3.155,0,0,1-.393,1.347L.372,11.449a2.021,2.021,0,0,0-.233,1.922,2.24,2.24,0,0,0,1.519,1.314,19.545,19.545,0,0,0,5.91.9,19.829,19.829,0,0,0,5.91-.889,2.3,2.3,0,0,0,1.475-1.335,2.083,2.083,0,0,0-.2-1.91Z" transform="translate(3.952 1.833)"/>
      <path id="Vector-2" data-name="Vector" d="M5.179.009A2.763,2.763,0,0,1,2.585,1.833,2.718,2.718,0,0,1,.642,1.018,2.531,2.531,0,0,1,0,0C.119.018.238.028.367.046.577.073.8.1,1.018.119,1.54.165,2.072.193,2.6.193S3.648.165,4.162.119C4.354.1,4.547.092,4.73.064Z" transform="translate(8.915 18.333)"/>
      <path id="Vector-3" data-name="Vector" d="M0,0H23V23H0Z" transform="translate(23 23) rotate(180)" fill="none" opacity="0"/>
    </g>
  </g>
</svg>
