<?xml version="1.0" encoding="utf-8"?>
<!-- Generator: Adobe Illustrator 16.0.0, SVG Export Plug-In . SVG Version: 6.00 Build 0)  -->
<!DOCTYPE svg PUBLIC "-//W3C//DTD SVG 1.1//EN" "http://www.w3.org/Graphics/SVG/1.1/DTD/svg11.dtd">
<svg version="1.1" id="Layer_1" xmlns="http://www.w3.org/2000/svg" xmlns:xlink="http://www.w3.org/1999/xlink" x="0px" y="0px"
	 width="125px" height="30px" viewBox="0 0 125 30" enable-background="new 0 0 125 30" xml:space="preserve">
<path fill-rule="evenodd" clip-rule="evenodd" fill="#FFFFFF" d="M14.758,29.737c-3.275,0-6.55,0.001-9.826-0.001
	c-2.821-0.001-4.782-1.781-4.806-4.604C0.07,18.344,0.08,11.552,0.136,4.762c0.021-2.552,1.816-4.384,4.377-4.449
	c3.874-0.099,7.751-0.05,11.626-0.058c2.765-0.006,5.529-0.006,8.293,0c3.073,0.006,4.952,1.848,4.961,4.935
	c0.019,6.61,0.013,13.221-0.003,19.831c-0.007,2.761-1.98,4.711-4.718,4.715C21.368,29.74,18.063,29.737,14.758,29.737z
	 M4.856,14.856c0.543-0.418,1.088-0.754,1.531-1.192c1.472-1.456,2.946-2.913,4.346-4.437c2.109-2.294,1.027-6.095-1.915-6.625
	c-1.162-0.209-2.415-0.19-3.58,0.007C4.647,2.709,4.022,3.345,3.672,3.902C3.365,4.39,3.332,5.105,3.33,5.721
	c-0.023,6.186-0.016,12.373-0.012,18.558c0,0.359,0.013,0.723,0.073,1.076c0.225,1.322,1.14,2.111,2.48,2.149
	c0.419,0.013,0.84-0.009,1.26-0.021c1.923-0.057,3.368-0.922,4.089-2.709c0.67-1.664,0.244-3.156-1.034-4.438
	C8.473,18.619,6.801,16.861,4.856,14.856z M13.099,14.811c1.079-0.972,2.086-1.829,3.035-2.747c0.949-0.918,1.855-1.881,2.75-2.854
	c1.744-1.896,1.321-4.935-0.866-6.229c-1.329-0.786-2.774-0.4-4.292-0.485c0.107,0.29,0.14,0.434,0.209,0.557
	c1.531,2.699,1.018,6.783-1.426,8.834c-1.086,0.911-1.981,2.05-3.176,3.311c1.161,1.063,2.299,2.004,3.318,3.059
	c1.727,1.789,2.317,3.949,1.744,6.379c-0.217,0.92-0.555,1.813-0.841,2.727c0.146,0.051,0.229,0.104,0.312,0.104
	c3.334,0.008,6.669,0.02,10.004,0.003c0.35-0.001,0.699-0.176,1.244-0.323C21.087,23.012,17.223,19.043,13.099,14.811z
	 M17.377,15.169c3.01,2.794,5.915,5.49,8.81,8.177c0-0.135,0-0.421,0-0.707c0.003-5.646-0.035-11.292,0.027-16.938
	c0.029-2.677-1.577-3.612-4.308-3.074C22,2.82,22.089,3,22.178,3.18c1.217,2.488,1.105,6.357-1.41,8.541
	C19.643,12.697,18.667,13.846,17.377,15.169z"/>
<path fill-rule="evenodd" clip-rule="evenodd" fill="#FFFFFF" d="M65.291,12.497c0,3.232,0,6.463,0,9.752c-1.117,0-2.178,0-3.35,0
	c0-0.452,0-0.835,0-1.218c0-4.085,0.027-8.17-0.021-12.254c-0.01-0.902,0.309-1.15,1.137-1.102c1.168,0.068,2.555-0.307,3.447,0.206
	c0.855,0.492,1.236,1.854,1.758,2.87c1.054,2.055,2.061,4.135,3.09,6.203c0.087,0.176,0.196,0.339,0.494,0.48
	c0-3.203,0-6.405,0-9.742c1.035,0,1.93-0.002,2.824,0.001c0.658,0.002,0.563,0.492,0.564,0.901c0.003,3.304,0.002,6.607,0.002,9.912
	c0,1.021-0.027,2.043,0.013,3.063c0.025,0.631-0.271,0.762-0.814,0.75c-1.051-0.022-2.104-0.036-3.153,0.008
	c-0.571,0.023-0.859-0.219-1.102-0.7c-1.414-2.815-2.85-5.62-4.281-8.427c-0.131-0.256-0.277-0.506-0.416-0.759
	C65.418,12.46,65.354,12.479,65.291,12.497z"/>
<path fill-rule="evenodd" clip-rule="evenodd" fill="#FFFFFF" d="M103.933,14.858c0.154,0.077,0.248,0.138,0.35,0.174
	c1.754,0.635,2.473,1.536,2.478,3.11c0.004,1.691-0.878,3.088-2.462,3.61c-0.928,0.307-1.927,0.495-2.903,0.538
	c-1.858,0.084-3.723,0.021-5.585,0.027c-0.458,0.002-0.813-0.014-0.81-0.648c0.019-4.506,0.011-9.01,0.015-13.515
	c0.001-0.115,0.047-0.23,0.068-0.324c2.689,0,5.355-0.093,8.011,0.038c1.357,0.067,2.545,0.794,3.022,2.194
	c0.436,1.276,0.424,2.574-0.577,3.625C105.118,14.131,104.541,14.424,103.933,14.858z M100.16,15.986
	c-1.396,0.021-1.396,0.021-1.389,1.441c0.003,0.538,0.042,1.078,0.01,1.613c-0.027,0.465,0.125,0.675,0.603,0.636
	c0.714-0.059,1.434-0.063,2.142-0.163c0.82-0.116,1.366-0.568,1.438-1.457c0.075-0.939-0.315-1.58-1.214-1.832
	C101.237,16.082,100.69,16.062,100.16,15.986z M98.771,11.911c0.002,1.795,0.024,1.816,1.765,1.61
	c1.445-0.171,2.136-0.748,2.084-1.74c-0.049-0.934-0.734-1.418-2.212-1.443C98.428,10.305,98.829,10.134,98.771,11.911z"/>
<path fill-rule="evenodd" clip-rule="evenodd" fill="#FFFFFF" d="M42.723,14.845c2.295,0.797,2.946,1.581,2.942,3.395
	c-0.003,1.827-0.928,3.036-2.862,3.667c-0.509,0.167-1.054,0.305-1.584,0.313c-2.365,0.033-4.73,0.014-7.174,0.014
	c0-4.813,0-9.624,0-14.646c2.816,0.109,5.576,0.107,8.311,0.363c1.636,0.153,2.761,1.479,2.921,2.883
	c0.196,1.73-0.437,2.891-2.039,3.735C43.115,14.633,42.993,14.699,42.723,14.845z M39.068,15.988
	c-0.459,0.248-1.274-0.381-1.341,0.602c-0.057,0.838-0.041,1.682,0,2.521c0.01,0.191,0.266,0.538,0.396,0.532
	c0.924-0.042,1.868-0.062,2.759-0.28c0.729-0.178,1.084-0.834,1.052-1.606c-0.032-0.774-0.449-1.308-1.196-1.502
	C40.19,16.113,39.617,16.072,39.068,15.988z M37.713,11.939c0,1.754,0.061,1.809,1.814,1.584c0.149-0.02,0.296-0.053,0.443-0.081
	c1.063-0.21,1.63-0.796,1.584-1.637c-0.046-0.85-0.509-1.23-1.679-1.384c-0.119-0.016-0.236-0.042-0.354-0.058
	C37.769,10.123,37.713,10.171,37.713,11.939z"/>
<path fill-rule="evenodd" clip-rule="evenodd" fill="#FFFFFF" d="M116.582,15.07c1.481,0.904,1.599,2.479,2.151,3.803
	c0.449,1.074,0.79,2.193,1.229,3.436c-1.253,0-2.412,0.028-3.566-0.027c-0.187-0.01-0.432-0.363-0.52-0.604
	c-0.465-1.266-0.853-2.56-1.336-3.817c-0.388-1.008-1.18-1.441-2.272-1.416c-0.587,0.013-0.78,0.207-0.769,0.793
	c0.032,1.646,0.012,3.294,0.012,5.065c-1.162,0-2.234,0.026-3.302-0.028c-0.157-0.008-0.423-0.398-0.424-0.613
	c-0.023-4.443-0.024-8.889,0.013-13.333c0.002-0.215,0.393-0.611,0.604-0.611c2.461-0.006,4.928-0.048,7.381,0.111
	c2.534,0.164,3.904,2.102,3.424,4.578c-0.218,1.12-0.91,1.864-1.918,2.341C117.081,14.846,116.871,14.938,116.582,15.07z
	 M111.506,12c0,0.418-0.047,0.844,0.02,1.25c0.032,0.2,0.277,0.523,0.421,0.521c0.859-0.016,1.733-0.032,2.571-0.202
	c0.728-0.146,1.02-0.751,1.021-1.494c0.001-0.716-0.319-1.216-0.98-1.444c-0.389-0.133-0.814-0.167-1.227-0.221
	C111.514,10.173,111.513,10.177,111.506,12z"/>
<path fill-rule="evenodd" clip-rule="evenodd" fill="#FFFFFF" d="M89.885,22.301c-1.56,0-2.961,0.029-4.359-0.027
	c-0.249-0.01-0.544-0.33-0.717-0.578c-1.186-1.697-2.344-3.413-3.515-5.121c-0.192-0.281-0.403-0.549-0.802-0.747
	c0,2.112,0,4.224,0,6.476c-1.167,0-2.238,0.029-3.305-0.033c-0.163-0.01-0.421-0.448-0.429-0.695
	c-0.046-1.41-0.031-2.822-0.032-4.234c-0.001-2.914,0.022-5.828-0.015-8.741c-0.01-0.724,0.243-0.953,0.931-0.923
	c0.895,0.039,1.792,0.01,2.823,0.01c0,2.019,0,3.94,0,5.863c0.081,0.025,0.162,0.051,0.243,0.075
	c0.184-0.248,0.367-0.496,0.55-0.745c1.099-1.501,2.167-3.025,3.316-4.485c0.271-0.344,0.802-0.635,1.235-0.669
	c1.158-0.092,2.327-0.031,3.678-0.031c-0.389,0.524-0.669,0.926-0.973,1.31c-1.247,1.576-2.482,3.162-3.763,4.71
	c-0.451,0.545-0.517,0.918-0.039,1.531c1.585,2.035,3.088,4.135,4.617,6.211C89.5,21.686,89.645,21.933,89.885,22.301z"/>
<path fill-rule="evenodd" clip-rule="evenodd" fill="#FFFFFF" d="M61.182,22.314c-1.273,0-2.412,0.037-3.545-0.027
	c-0.263-0.016-0.6-0.33-0.739-0.593c-0.25-0.472-0.442-0.997-0.537-1.522c-0.165-0.912-0.691-1.1-1.532-1.053
	c-1.198,0.068-2.403,0.045-3.604,0.005c-0.594-0.021-0.926,0.147-1.129,0.744c-0.276,0.81-0.496,2.064-1.048,2.261
	c-1.028,0.366-2.278,0.105-3.551,0.105c0.175-0.527,0.316-1.005,0.491-1.47c1.545-4.1,3.106-8.193,4.634-12.3
	c0.211-0.567,0.496-0.815,1.111-0.792c1.05,0.041,2.106-0.036,3.152,0.04c0.333,0.024,0.823,0.306,0.933,0.589
	C57.615,12.91,59.363,17.537,61.182,22.314z M53.376,10.782c-0.08-0.013-0.159-0.026-0.239-0.04
	c-0.622,1.879-1.244,3.757-1.887,5.698c1.39,0,2.547,0,3.838,0C54.499,14.487,53.938,12.634,53.376,10.782z"/>
<path fill-rule="evenodd" clip-rule="evenodd" fill="#FFFFFF" d="M125.002,22.307c-1.168,0-2.242,0.041-3.308-0.041
	c-0.172-0.014-0.427-0.576-0.429-0.887c-0.03-3.873-0.02-7.746-0.02-11.62c0-2.074,0-2.079,2.109-2.073
	c1.944,0.005,1.637-0.125,1.642,1.621C125.012,13.569,125.002,17.831,125.002,22.307z"/>
</svg>
