<?xml version="1.0" encoding="utf-8"?>
<!-- Generator: Adobe Illustrator 25.0.0, SVG Export Plug-In . SVG Version: 6.00 Build 0)  -->
<svg version="1.1" id="Layer_1" xmlns="http://www.w3.org/2000/svg" xmlns:xlink="http://www.w3.org/1999/xlink" x="0px" y="0px"
	 viewBox="0 0 44.4 44.2" style="enable-background:new 0 0 44.4 44.2;" xml:space="preserve">
<style type="text/css">
	.st0{fill:#e4ff23;}
</style>
<path class="st0" d="M30,39.2c-7.5,0-15,0-22.4,0c-0.9-0.4-1-1.1-1-2c0-10.1,0-20.1,0-30.2c0-1.8,0.3-2.1,2-2.1c7,0,13.9,0,20.9-0.1
	c1,0,1.9,0.2,2.7,1c1.4,1.5,2.9,2.9,4.4,4.4c0.7,0.7,0.9,1.6,0.6,2.6c-0.4,1.3-1.4,1.7-2.7,2c0,1.7,0.3,3.5-1.4,4.6
	c5,3.4,5.2,8.1,4,11.2c-1.4,3.7-5,6-9,5.8c-3.7-0.2-7.2-3-8.1-6.7c-0.5-1.9-0.4-3.7,0.3-5.5c1.1-2.8,3.2-4.6,6-5.5
	c-0.2-1-0.3-1.9-0.5-2.9c-4.7,0-9.4,0-14.1,0c0,0-0.1,0-0.1,0c-0.7,0.2-1.3,0.4-1.2,1.3c0.1,0.8,0.6,1.1,1.4,1.1c1.1,0,2.2,0,3.3,0
	c2,0,4.1,0,6.1,0c-0.3,0.6-0.8,0.9-1,1.4c-0.6,0.9-1.3,1.1-2.3,1.1c-2-0.1-4,0-6,0c-0.9,0-1.6,0.2-1.6,1.3c0,1,0.7,1.2,1.6,1.2
	c2,0,4,0,6,0c-0.2,0.8-0.4,1.5-0.6,2.3c-1.9,0-3.8-0.1-5.6,0c-0.5,0-1.2,0.6-1.3,1c-0.1,0.4,0.5,1,0.9,1.4c0.2,0.2,0.8,0.1,1.2,0.1
	c1.5,0,3.1,0,4.6,0c0.1,0.4,0.1,0.6,0.2,0.9c1,5.2,4,8.5,9.2,9.7C27.7,39.1,28.9,39.1,30,39.2z M30.1,21.7c0-0.2-0.1-0.3-0.1-0.5
	c0-0.9-0.1-1.8-1.3-1.8c-1.1,0-1.2,0.9-1.3,1.8c0,0.4-0.4,0.8-0.7,1c-1.6,0.9-2.4,2.6-1.7,4.2c0.7,1.6,2,2.2,3.7,2.1
	c0.7,0,1.5,0,1.5,0.9c0,1-0.8,1-1.5,1c-0.9,0-1.7,0-2.6,0c-0.7,0-1.3,0.5-1.2,1.2c0.1,0.5,0.7,0.9,1.2,1.2c0.4,0.2,0.9,0,1.4,0
	c0,0.4,0,0.7,0.1,1c0,0.8,0.3,1.4,1.2,1.4c0.9,0,1.3-0.6,1.2-1.4c0-0.7,0.2-0.9,0.8-1.2c1.3-0.6,2-1.9,1.8-3.2
	c-0.2-1.4-0.9-2.4-2.2-2.8c-0.6-0.2-1.3-0.1-1.9-0.2c-0.7,0-1.3-0.2-1.3-1c0-0.8,0.6-1.1,1.4-1.1c0.8,0,1.6,0,2.4,0
	c0.9,0,1.7-0.2,1.7-1.2c0-1-0.7-1.2-1.6-1.2C30.8,21.7,30.4,21.7,30.1,21.7z M30.6,7c-1.9,1.9-3.6,3.5-5.6,5.5c1.1,0.1,2,0.3,3,0.4
	c0,0.8,0,1.6,0,2.4c0,2.8,0.1,2.9,2.9,2.8c1.3-0.1,1.7-0.4,1.7-1.8c0-1.1,0-2.3,0-3.5c0.7,0,1.3,0,1.9,0c0.2,0,0.7-0.1,0.7-0.3
	c0.1-0.3,0-0.7-0.2-0.8C33.6,10.1,32.1,8.5,30.6,7z M15.1,11.2c-1.2,0-2.3,0-3.5,0c-0.8,0-1.3,0.4-1.4,1.2c0,0.8,0.5,1.3,1.3,1.3
	c2.4,0,4.8,0,7.1,0c0.7,0,1.3-0.4,1.3-1.3c0-0.9-0.6-1.2-1.4-1.2C17.4,11.2,16.3,11.2,15.1,11.2z"/>
</svg>
