<svg height="18" viewBox="0 0 18 18" width="18" xmlns="http://www.w3.org/2000/svg"><path d="m.21 9c0-1.67 0-3.32-.01-5a3.46 3.46 0 0 1 .2-1.07 2.75 2.75 0 0 1 .8-1.24 2 2 0 0 1 1.34-.54h8.08a2.11 2.11 0 0 1 1.69.85 3 3 0 0 1 .69 1.91v2.73a.87.87 0 0 1 -.3.69.58.58 0 0 1 -.77 0 .81.81 0 0 1 -.32-.65c0-.84 0-1.69 0-2.54a1.53 1.53 0 0 0 -.21-.83.9.9 0 0 0 -.83-.46h-7.85a1 1 0 0 0 -.66.18 1.24 1.24 0 0 0 -.44.82 2.88 2.88 0 0 0 0 .42v9.52a1.51 1.51 0 0 0 .24.9 1 1 0 0 0 .83.42h.83 6.82a2.61 2.61 0 0 0 .4 0 .87.87 0 0 0 .59-.37 1.5 1.5 0 0 0 .26-.92c0-.87 0-1.75 0-2.62a.71.71 0 0 1 .73-.69.57.57 0 0 1 .52.38 1.41 1.41 0 0 1 .12.5v2.71a3 3 0 0 1 -.76 2 2.13 2.13 0 0 1 -1.63.75h-4.83c-1 0-2 0-3 0a2.26 2.26 0 0 1 -2.13-1.28 3 3 0 0 1 -.36-1.12 4 4 0 0 1 0-.6c-.05-1.63-.04-3.25-.04-4.85z" fill="#ffffff"/><path d="m10.57 9.85c-1.49 0-3 0-4.48 0a.83.83 0 0 1 -.84-1 .77.77 0 0 1 .47-.69.71.71 0 0 1 .29 0h9.19a.83.83 0 0 0 .15 0 .61.61 0 0 0 -.07-.16l-1.2-1.5a1 1 0 0 1 -.14-1.2.61.61 0 0 1 1-.14c.3.32.57.67.84 1l1.64 2a1.48 1.48 0 0 1 .34.61 1.13 1.13 0 0 1 0 .41 1.77 1.77 0 0 1 -.47.73l-1.65 2-.64.79a.64.64 0 0 1 -1.12-.16 1 1 0 0 1 .18-1.12l1.21-1.42a.61.61 0 0 0 .07-.14.53.53 0 0 0 -.16 0z" fill="#ffffff"/><path d="m0 0h18v18h-18z" fill="none"/></svg>