<svg xmlns="http://www.w3.org/2000/svg" width="23.155" height="23" viewBox="0 0 23.155 23">
  <path id="loyalty-reward-active" d="M13.59,1.661l2.04,4.076a2.546,2.546,0,0,0,1.635,1.216l3.69.607c2.36.39,2.909,2.1,1.216,3.806l-2.879,2.887a2.5,2.5,0,0,0-.594,2.1l.824,3.561c.644,2.808-.858,3.909-3.329,2.431l-3.456-2.055a2.456,2.456,0,0,0-2.287,0L6.992,22.344C4.505,23.811,3,22.721,3.662,19.913l.826-3.561a2.63,2.63,0,0,0-.622-2.113L.983,11.368C-.71,9.676-.161,7.968,2.2,7.563l3.69-.607A2.5,2.5,0,0,0,7.524,5.739l2.04-4.076C10.681-.553,12.475-.553,13.59,1.661Z" transform="translate(0 -0.001)" fill="#e4ff23"/>
</svg>
