<svg height="18" viewBox="0 0 18 18" width="18" xmlns="http://www.w3.org/2000/svg"><path d="m17.8 4.08a1.93 1.93 0 0 0 0-.24.72.72 0 0 0 -.26-.49.86.86 0 0 0 -.6-.19h-16.03a.72.72 0 0 0 -.64.46 1.42 1.42 0 0 0 -.06.46v6.83 3a1.14 1.14 0 0 0 .08.46.75.75 0 0 0 .77.44h15.94a.74.74 0 0 0 .73-.44 1.31 1.31 0 0 0 .08-.48zm-1.39 1.64a.9.9 0 0 1 -.15.19l-3.51 3.49a.58.58 0 0 1 -.15.11l.14.15 2.71 2.72a.65.65 0 0 1 .15.18.32.32 0 0 1 0 .43.35.35 0 0 1 -.44 0 1.22 1.22 0 0 1 -.17-.15l-2.72-2.73a.48.48 0 0 1 -.09-.14 1.23 1.23 0 0 0 -.16.15l-2.52 2.5a.56.56 0 0 1 -.57.21.85.85 0 0 1 -.34-.21l-2.59-2.45a.38.38 0 0 1 -.06-.17h-.08a.67.67 0 0 1 -.09.14l-2.68 2.72a1.68 1.68 0 0 1 -.21.18.35.35 0 0 1 -.45 0 .36.36 0 0 1 0-.44 1.22 1.22 0 0 1 .15-.17l2.68-2.78a.65.65 0 0 0 .11-.12l-.11-.12-3.54-3.52a.64.64 0 0 1 -.23-.5.54.54 0 0 1 .83-.39 1 1 0 0 1 .19.16l6.35 6.32.11.16.17-.18 6.36-6.33a.62.62 0 0 1 .57-.21.52.52 0 0 1 .34.8z" fill="#e4ff23"/><path d="m0 0h18v18h-18z" fill="none"/></svg>